<?xml version="1.0" encoding="UTF-8" standalone="no"?>
<!DOCTYPE svg PUBLIC "-//W3C//DTD SVG 1.1//EN" "http://www.w3.org/Graphics/SVG/1.1/DTD/svg11.dtd">
<svg width="100%" height="100%" viewBox="0 0 190 46" version="1.1" xmlns="http://www.w3.org/2000/svg" xmlns:xlink="http://www.w3.org/1999/xlink" xml:space="preserve" xmlns:serif="http://www.serif.com/" style="fill-rule:evenodd;clip-rule:evenodd;stroke-linejoin:round;stroke-miterlimit:2;">
    <g>
        <g transform="matrix(0.0253186,0,0,0.0249554,-44.7051,-51.1008)">
            <rect x="2140.58" y="2922.07" width="587.771" height="53.789" style="fill:rgb(52,204,161);"/>
        </g>
        <g transform="matrix(-0.012662,0.0216105,0.021925,0.0124803,26.351,21.5979)">
            <path d="M65.284,-113.124C106.957,-113.16 140.748,-79.39 140.734,-37.709C140.715,3.979 106.966,37.736 65.284,37.721C23.596,37.703 -10.163,3.958 -10.145,-37.729C-10.148,-79.382 23.602,-113.138 65.284,-113.124" style="fill:rgb(52,204,161);"/>
        </g>
        <g transform="matrix(0.0253186,0,0,0.0249554,-44.7051,-33.7043)">
            <rect x="2140.58" y="2573.52" width="659.131" height="53.788" style="fill:rgb(52,204,161);"/>
        </g>
        <g transform="matrix(0.0253186,0,0,0.0249554,32.45,30.7115)">
            <path d="M0,210.401L-495.9,210.401L-503.521,196.31L-596.077,25.612L-548.799,0L-463.892,156.579L0,156.579L0,210.401Z" style="fill:rgb(52,204,161);fill-rule:nonzero;"/>
        </g>
        <g transform="matrix(-0.0126583,0.0216126,0.0219271,0.0124767,33.7709,34.3481)">
            <path d="M65.362,-113.164C107.044,-113.156 140.792,-79.387 140.781,-37.7C140.793,3.947 107.044,37.72 65.362,37.713C23.662,37.734 -10.086,3.952 -10.075,-37.735C-10.07,-79.412 23.708,-113.154 65.362,-113.164" style="fill:rgb(52,204,161);"/>
        </g>
        <g transform="matrix(-0.012659,0.0216122,0.0219267,0.0124775,28.172,30.2729)">
            <path d="M65.333,-113.157C107.02,-113.146 140.781,-79.4 140.769,-37.713C140.759,3.969 107.014,37.73 65.333,37.722C23.645,37.709 -10.096,3.929 -10.09,-37.747C-10.095,-79.406 23.651,-113.167 65.333,-113.157" style="fill:rgb(52,204,161);"/>
        </g>
        <g transform="matrix(0.0253186,0,0,0.0249554,30.4958,22.0187)">
            <path d="M0,202.804L-576.555,202.804L-584.045,188.09L-667.574,24.394L-619.649,0L-543.622,149.016L0,149.016L0,202.804Z" style="fill:rgb(52,204,161);fill-rule:nonzero;"/>
        </g>
        <g transform="matrix(-0.0126607,0.0216112,0.0219258,0.0124791,32.3384,25.5009)">
            <path d="M65.319,-113.135C106.984,-113.172 140.733,-79.397 140.718,-37.709C140.755,3.956 106.971,37.707 65.319,37.712C23.62,37.729 -10.124,3.943 -10.109,-37.743C-10.117,-79.391 23.649,-113.179 65.319,-113.135" style="fill:rgb(52,204,161);"/>
        </g>
        <g transform="matrix(0.0253186,0,0,0.0249554,10.8425,39.0748)">
            <path d="M0,-1156.82C-58.625,-1135.66 -115.583,-1086.32 -156.245,-1026.53C-195.126,-969.33 -218.573,-903.237 -213.605,-844C-209.511,-795.774 -211.162,-751.148 -223.948,-707.737C-236.848,-663.962 -260.85,-622.297 -301.331,-580.631C-302.272,-579.668 -303.275,-578.743 -304.33,-577.966C-327.85,-558.54 -347.129,-540.894 -368.943,-520.952C-362.694,-517.505 -354.932,-512.838 -347.033,-507.871L-346.959,-507.831L-346.925,-507.871C-336.282,-501.196 -326.223,-494.596 -319.436,-489.85L-319.124,-489.669L-318.545,-489.221L-316.771,-487.848C-304.148,-477.881 -296.267,-462.497 -294.14,-446.002C-292.083,-429.841 -295.546,-412.082 -305.612,-397.515L-305.833,-397.181L-306.405,-396.364L-306.632,-396.069L-306.609,-396.069L-312.949,-387.394L-311.168,-385.948L-310.539,-385.392L-310.539,-385.432L-309.853,-384.802L-309.15,-384.173L-309.133,-384.173C-301.977,-377.425 -296.233,-366.527 -294.265,-355.589C-292.212,-344.135 -293.709,-331.683 -300.752,-321.381C-297.027,-317.706 -293.602,-313.703 -290.58,-309.257C-280.401,-294.282 -275.973,-276.449 -280.554,-253.286C-282.182,-242.716 -286.208,-230.599 -290.302,-218.255C-294.713,-205.02 -299.255,-191.304 -298.92,-184.483C-298.161,-168.731 -291.175,-160.094 -281.201,-155.536C-266.764,-148.975 -245.614,-147.711 -224.356,-147.751C-148.811,-147.898 -64.794,-134.256 11.397,-103.897C78.159,-77.32 139.188,-37.843 183.984,16.427L142.58,50.454C103.993,3.708 50.522,-30.653 -8.358,-54.117C-77.972,-81.844 -154.963,-94.297 -224.356,-94.189C-251.88,-94.116 -280.146,-96.151 -303.462,-106.789C-331.241,-119.433 -350.577,-142.041 -352.499,-181.999C-353.298,-198.46 -347.146,-217.07 -341.159,-235.045C-337.915,-244.871 -334.728,-254.471 -333.674,-261.44L-333.651,-261.44L-333.356,-263.107C-331.746,-270.745 -332.58,-275.746 -334.933,-279.233C-338.454,-284.381 -345.831,-289.388 -354.614,-294.577C-356.395,-295.654 -358.101,-296.947 -359.655,-298.472C-370.258,-308.775 -370.497,-325.786 -360.176,-336.389L-349.148,-347.77L-365.456,-361.225C-377.392,-370.008 -379.949,-386.764 -371.2,-398.7L-349.908,-427.8L-349.891,-427.8L-349.573,-428.243C-347.515,-431.395 -346.829,-435.438 -347.333,-439.255C-347.663,-441.999 -348.519,-444.295 -349.721,-445.446L-349.868,-445.52L-350.424,-445.928C-357.84,-451.077 -367.106,-457.235 -375.503,-462.497L-375.463,-462.531C-382.433,-466.908 -389.424,-471.059 -395.168,-474.212L-396.614,-474.949C-403.191,-478.47 -408.862,-482.881 -413.46,-487.922C-420.298,-495.413 -424.58,-504.048 -426.083,-513.059C-427.715,-522.845 -426.173,-532.814 -421.229,-542.006C-418.615,-546.865 -415.071,-551.458 -410.608,-555.535L-410.551,-555.501L-405.51,-560.099C-382.807,-580.853 -362.734,-599.202 -338.936,-618.889C-305.538,-653.506 -285.851,-687.539 -275.434,-722.865C-264.854,-758.854 -263.595,-797.299 -267.19,-839.593C-273.234,-911.391 -245.966,-989.828 -200.598,-1056.55C-153.948,-1125.2 -87.464,-1182.21 -18.071,-1207.27L0,-1156.82Z" style="fill:rgb(52,204,161);fill-rule:nonzero;"/>
        </g>
        <g transform="matrix(0.0253186,0,0,0.0249554,9.4914,13.4)">
            <path d="M0,115.697L168.197,115.697L245.557,-35.949L253.048,-50.629L767.331,-50.629C773.148,-66.829 784.535,-81.102 800.582,-90.407C836.69,-111.24 882.767,-98.895 903.634,-62.786C924.466,-26.684 912.116,19.427 876.02,40.259C839.911,61.093 793.8,48.748 772.968,12.645C771.187,9.566 769.633,6.38 768.363,3.153L285.98,3.153L228.546,115.697L375.26,115.697C381.025,99.31 392.463,84.817 408.697,75.438C444.783,54.605 490.916,66.95 511.749,103.052C532.576,139.161 520.237,185.271 484.129,206.104C448.043,226.937 401.933,214.593 381.1,178.49C379.41,175.558 377.93,172.558 376.671,169.519L0,169.519L0,115.697ZM424.931,128.37C431.792,116.508 446.949,112.431 458.811,119.292C470.639,126.147 474.716,141.31 467.895,153.172C461.039,165.034 445.877,169.072 434.015,162.25C422.152,155.395 418.093,140.232 424.931,128.37M816.855,-37.469C823.671,-49.331 838.8,-53.374 850.695,-46.519C862.524,-39.697 866.595,-24.535 859.779,-12.673C852.919,-0.81 837.756,3.227 825.894,-3.589C814.031,-10.449 809.96,-25.612 816.855,-37.469" style="fill:rgb(52,204,161);fill-rule:nonzero;"/>
        </g>
        <g transform="matrix(0.0126669,0.0216077,0.0219222,-0.0124852,24.1533,22.2289)">
            <path d="M21.47,-12.401C35.171,-12.4 46.252,-1.291 46.281,12.392C46.28,26.093 35.172,37.174 21.47,37.173C7.787,37.202 -3.294,26.093 -3.323,12.41C-3.321,-1.291 7.787,-12.372 21.47,-12.401" style="fill:white;"/>
        </g>
        <g transform="matrix(0.0126644,0.0216091,0.0219236,-0.0124827,31.5732,34.9818)">
            <path d="M21.437,-12.377C35.117,-12.408 46.232,-1.318 46.23,12.382C46.222,26.086 35.117,37.163 21.437,37.195C7.733,37.187 -3.352,26.08 -3.345,12.377C-3.376,-1.304 7.734,-12.384 21.437,-12.377" style="fill:white;"/>
        </g>
        <g transform="matrix(0.0126667,0.0216078,0.0219223,-0.012485,25.9738,30.9053)">
            <path d="M21.464,-12.389C35.147,-12.417 46.248,-1.274 46.277,12.41C46.276,26.11 35.167,37.191 21.464,37.186C7.782,37.218 -3.315,26.08 -3.347,12.392C-3.325,-1.274 7.763,-12.39 21.464,-12.389" style="fill:white;"/>
        </g>
        <g transform="matrix(0.0126646,0.021609,0.0219235,-0.0124829,30.1404,26.1331)">
            <path d="M21.468,-12.364C35.148,-12.396 46.251,-1.26 46.226,12.414C46.253,26.098 35.171,37.215 21.468,37.207C7.764,37.2 -3.35,26.109 -3.348,12.409C-3.346,-1.291 7.747,-12.402 21.468,-12.364" style="fill:white;"/>
        </g>
        <g transform="matrix(-0.0126581,0.0216127,0.0219273,0.0124765,21.337,16.6029)">
            <path d="M21.486,-37.169C7.783,-37.157 -3.326,-26.068 -3.306,-12.38C-3.308,1.335 7.803,12.417 21.486,12.44C35.187,12.433 46.264,1.321 46.286,-12.363C46.28,-26.064 35.178,-37.161 21.486,-37.169" style="fill:white;"/>
        </g>
        <g transform="matrix(-0.0126646,0.021609,0.0219235,0.0124829,31.2589,12.4668)">
            <path d="M21.387,-37.174C7.706,-37.206 -3.379,-26.099 -3.377,-12.399C-3.387,1.256 7.706,12.365 21.387,12.397C35.091,12.39 46.205,1.299 46.202,-12.401C46.196,-26.104 35.103,-37.214 21.387,-37.174" style="fill:white;"/>
        </g>
        <g transform="matrix(0.170945,0,0,0.170945,-301.894,-179.93)">
            <text x="1979.33px" y="1274.13px" style="font-family:'ArialMT', 'Arial', sans-serif;font-size:210.594px;fill:rgb(39,39,39);">EASYBCI</text>
        </g>
    </g>
</svg>
